<svg height="512pt" viewBox="0 0 512 512" width="512pt" xmlns="http://www.w3.org/2000/svg"><path d="m512 256c0 141.386719-114.613281 256-256 256s-256-114.613281-256-256 114.613281-256 256-256 256 114.613281 256 256zm0 0" fill="#fdcb6b"/><path d="m142.484375 485.5c-11.328125-5.617188-22.183594-12.042969-32.484375-19.210938v-391.289062c0-8.285156 6.714844-15 15-15h260c8.285156 0 15 6.714844 15 15v392.679688c-9.703125 6.613281-19.890625 12.566406-30.488281 17.820312zm0 0" fill="#86523e"/><path d="m130 478.875c-6.871094-3.890625-13.542969-8.09375-20-12.585938v-391.289062c0-8.285156 6.714844-15 15-15h20c-8.285156 0-15 6.714844-15 15zm0 0" fill="#6d4336"/><path d="m372 93v391.265625c-34.824219 17.730469-74.242188 27.734375-116 27.734375s-81.175781-10.003906-116-27.734375v-391.265625c0-2.761719 2.238281-5 5-5h222c2.761719 0 5 2.238281 5 5zm0 0" fill="#87a0af"/><path d="m145 88h222c2.761719 0 5 2.238281 5 5v327c0 1.324219-.527344 2.597656-1.464844 3.535156l-67.070312 67.070313c-.9375.941406-2.207032 1.464843-3.535156 1.464843h-154.929688c-2.761719 0-5-2.238281-5-5v-394.070312c0-2.761719 2.238281-5 5-5zm0 0" fill="#b4d2d7"/><path d="m336 220c0 44.183594-35.816406 80-80 80s-80-35.816406-80-80 35.816406-80 80-80 80 35.816406 80 80zm0 0" fill="#e1ebf0"/><path d="m336 291.578125c0 4.652344-3.769531 8.421875-8.421875 8.421875h-143.15625c-4.652344 0-8.421875-3.769531-8.421875-8.421875 0-4.648437 3.769531-8.421875 8.421875-8.421875h4.210937c0-33.28125 24.144532-60.910156 55.871094-66.371094-.722656-1.589844-1.136718-3.347656-1.136718-5.207031 0-6.976563 5.65625-12.632813 12.632812-12.632813s12.632812 5.65625 12.632812 12.632813c0 1.859375-.410156 3.621094-1.132812 5.207031 31.726562 5.460938 55.871094 33.085938 55.871094 66.371094h4.210937c4.648438 0 8.417969 3.773438 8.417969 8.421875zm-108.421875-75.789063c3.488281 0 6.316406-2.824218 6.316406-6.316406 0-3.488281-2.828125-6.316406-6.316406-6.316406-5.222656 0-9.472656-4.25-9.472656-9.472656s4.25-9.472656 9.472656-9.472656h44.210937c12.191407 0 22.105469-9.917969 22.105469-22.105469 0-12.191407-9.914062-22.105469-22.105469-22.105469-3.488281 0-6.316406 2.828125-6.316406 6.316406 0 3.488282 2.828125 6.316406 6.316406 6.316406 5.226563 0 9.476563 4.25 9.476563 9.472657 0 5.222656-4.25 9.472656-9.476563 9.472656h-44.210937c-12.1875 0-22.105469 9.917969-22.105469 22.105469s9.917969 22.105468 22.105469 22.105468zm0 0" fill="#00808a"/><path d="m299.976562 277.507812c.285157 2.984376-2.050781 5.492188-4.976562 5.492188h-82.363281c0 .054688-.003907.105469-.003907.15625h-3.921874c-4.484376 0-8.402344 3.386719-8.691407 7.863281-.316406 4.90625 3.566407 8.980469 8.402344 8.980469h-24c-4.835937 0-8.71875-4.074219-8.402344-8.980469.289063-4.476562 4.207031-7.863281 8.691407-7.863281h3.921874c0-33.28125 24.144532-60.910156 55.871094-66.371094-.941406-2.066406-1.355468-4.421875-1.019531-6.90625.757813-5.648437 5.359375-10.191406 11.019531-10.84375 3.679688-.425781 7.078125.738282 9.621094 2.886719-2.496094 1.816406-4.125 4.753906-4.125 8.078125 0 1.148438.195312 2.253906.554688 3.28125.90625 2.605469-.398438 5.46875-3 6.386719-21.105469 7.453125-37.382813 25.117187-42.886719 47.0625-.796875 3.179687 1.5625 6.269531 4.839843 6.269531h75.277344c2.613282 0 4.945313 1.910156 5.191406 4.507812zm0 0" fill="#016a74"/><path d="m256 0c-15.164062 0-27.5 12.335938-27.5 27.5v40c0 15.164062 12.335938 27.5 27.5 27.5s27.5-12.335938 27.5-27.5v-40c0-15.164062-12.335938-27.5-27.5-27.5zm12.5 67.5c0 6.894531-5.605469 12.5-12.5 12.5s-12.5-5.605469-12.5-12.5v-40c0-6.894531 5.605469-12.5 12.5-12.5s12.5 5.605469 12.5 12.5zm0 0" fill="#dca050"/><path d="m296 60v49.65625c0 5.328125-4.019531 9.980469-9.335938 10.324219-4.449218.285156-8.328124-2.339844-9.90625-6.15625-.9375-2.265625-3.050781-3.824219-5.503906-3.824219h-.511718c-2.441407 0-4.558594 1.539062-5.488282 3.800781-1.496094 3.636719-5.078125 6.199219-9.253906 6.199219s-7.757812-2.5625-9.253906-6.199219c-.925782-2.261719-3.046875-3.800781-5.488282-3.800781h-.511718c-2.453125 0-4.5625 1.558594-5.503906 3.824219-1.582032 3.816406-5.457032 6.441406-9.90625 6.15625-5.316407-.34375-9.335938-4.996094-9.335938-10.324219v-49.65625c0-5.523438 4.476562-10 10-10h60c5.523438 0 10 4.476562 10 10zm0 0" fill="#fc6930"/><path d="m296 80v29.65625c0 5.328125-4.019531 9.980469-9.335938 10.324219-4.449218.285156-8.324218-2.339844-9.90625-6.15625-.9375-2.265625-3.046874-3.824219-5.5-3.824219h-.515624c-2.441407 0-4.558594 1.539062-5.488282 3.800781-1.496094 3.636719-5.078125 6.199219-9.253906 6.199219s-7.757812-2.5625-9.253906-6.199219c-.925782-2.261719-3.046875-3.800781-5.488282-3.800781h-.511718c-2.453125 0-4.5625 1.558594-5.503906 3.824219-1.582032 3.816406-5.457032 6.441406-9.90625 6.15625-5.316407-.34375-9.335938-4.996094-9.335938-10.324219v-29.65625c0 5.523438 4.476562 10 10 10h60c5.523438 0 10-4.476562 10-10zm0 0" fill="#fc5426"/><path d="m200 332v11c0 1.105469-.894531 2-2 2h-36c-1.105469 0-2-.894531-2-2v-11c0-1.105469.894531-2 2-2h36c1.105469 0 2 .894531 2 2zm103-2h-36c-1.105469 0-2 .894531-2 2v11c0 1.105469.894531 2 2 2h36c1.105469 0 2-.894531 2-2v-11c0-1.105469-.894531-2-2-2zm0 0" fill="#87a0af"/><path d="m220 362v11c0 1.105469-.894531 2-2 2h-56c-1.105469 0-2-.894531-2-2v-11c0-1.105469.894531-2 2-2h56c1.105469 0 2 .894531 2 2zm17.5-2c-4.140625 0-7.5 3.359375-7.5 7.5s3.359375 7.5 7.5 7.5 7.5-3.359375 7.5-7.5-3.359375-7.5-7.5-7.5zm-75.5 40h36c1.105469 0 2-.894531 2-2v-11c0-1.105469-.894531-2-2-2h-36c-1.105469 0-2 .894531-2 2v11c0 1.105469.894531 2 2 2zm75.5-15c-4.140625 0-7.5 3.359375-7.5 7.5s3.359375 7.5 7.5 7.5 7.5-3.359375 7.5-7.5-3.359375-7.5-7.5-7.5zm-19.5 25h-56c-1.105469 0-2 .894531-2 2v11c0 1.105469.894531 2 2 2h56c1.105469 0 2-.894531 2-2v-11c0-1.105469-.894531-2-2-2zm19.5 0c-4.140625 0-7.5 3.359375-7.5 7.5s3.359375 7.5 7.5 7.5 7.5-3.359375 7.5-7.5-3.359375-7.5-7.5-7.5zm-49.5 25h-26c-1.105469 0-2 .894531-2 2v11c0 1.105469.894531 2 2 2h26c1.105469 0 2-.894531 2-2v-11c0-1.105469-.894531-2-2-2zm49.5 0c-4.140625 0-7.5 3.359375-7.5 7.5s3.359375 7.5 7.5 7.5 7.5-3.359375 7.5-7.5-3.359375-7.5-7.5-7.5zm85.5-75h-56c-1.105469 0-2 .894531-2 2v11c0 1.105469.894531 2 2 2h56c1.105469 0 2-.894531 2-2v-11c0-1.105469-.894531-2-2-2zm19.5 15c4.140625 0 7.5-3.359375 7.5-7.5s-3.359375-7.5-7.5-7.5-7.5 3.359375-7.5 7.5 3.359375 7.5 7.5 7.5zm-75.5 25h36c1.105469 0 2-.894531 2-2v-11c0-1.105469-.894531-2-2-2h-36c-1.105469 0-2 .894531-2 2v11c0 1.105469.894531 2 2 2zm75.5-15c-4.140625 0-7.5 3.359375-7.5 7.5s3.359375 7.5 7.5 7.5 7.5-3.359375 7.5-7.5-3.359375-7.5-7.5-7.5zm-19.5 25h-56c-1.105469 0-2 .894531-2 2v11c0 1.105469.894531 2 2 2h56c1.105469 0 2-.894531 2-2v-11c0-1.105469-.894531-2-2-2zm19.5 0c-4.140625 0-7.5 3.359375-7.5 7.5s3.359375 7.5 7.5 7.5 7.5-3.359375 7.5-7.5-3.359375-7.5-7.5-7.5zm-49.5 25h-26c-1.105469 0-2 .894531-2 2v11c0 1.105469.894531 2 2 2h26c1.105469 0 2-.894531 2-2v-11c0-1.105469-.894531-2-2-2zm0 0" fill="#9bb9c3"/><path d="m371.535156 422.070312c-.246094.539063-.574218 1.039063-1 1.464844l-67.070312 67.070313c-.425782.425781-.929688.753906-1.464844 1v-64.535157c0-2.761718 2.238281-5 5-5zm0 0" fill="#e1ebf0"/></svg>