<?xml version="1.0" encoding="iso-8859-1"?>
<!-- Generator: Adobe Illustrator 21.0.0, SVG Export Plug-In . SVG Version: 6.00 Build 0)  -->
<svg xmlns="http://www.w3.org/2000/svg" xmlns:xlink="http://www.w3.org/1999/xlink" version="1.1" id="Capa_1" x="0px" y="0px" viewBox="0 0 512 512" style="enable-background:new 0 0 512 512;" xml:space="preserve" width="512" height="512">
<g>
	<g>
		<g>
			<g>
				<g>
					<g>
						<g>
							<g>
								<g>
									<g>
										<g>
											<circle style="fill:#80DBFF;" cx="256" cy="256" r="256"/>
										</g>
									</g>
								</g>
							</g>
						</g>
					</g>
				</g>
			</g>
		</g>
	</g>
	<path style="fill:#4AB8F7;" d="M512,256c0-14.505-1.225-28.723-3.543-42.569L392.001,99.404L71.43,361.266l146.346,147.892   C230.247,511.024,243.009,512,256,512C397.385,512,512,397.385,512,256z"/>
	<g>
		<g>
			<rect x="84.001" y="114.404" style="fill:#FFFFFF;" width="293" height="231.861"/>
		</g>
		<g>
			<rect x="225.689" y="114.404" style="fill:#F7F7F7;" width="151.313" height="231.861"/>
		</g>
		<g>
			<path style="fill:#F0F0F0;" d="M362.001,129.404v201.862h-263V129.404H362.001 M392.001,99.404h-30h-263h-30v30v201.862v30h30     h263h30v-30V129.404V99.404L392.001,99.404z"/>
		</g>
		<g>
			<polygon style="fill:#E4E4E4;" points="362.001,99.404 225.689,99.404 225.689,129.404 362.001,129.404 362.001,331.266      225.689,331.266 225.689,361.266 362.001,361.266 392.001,361.266 392.001,331.266 392.001,129.404 392.001,99.404    "/>
		</g>
	</g>
	<g>
		<circle style="fill:#FFCE00;" cx="305.87" cy="188.171" r="34.522"/>
	</g>
	<g>
		<path style="fill:#FFB000;" d="M305.87,153.648c-0.181,0-0.36,0.011-0.541,0.014v69.017c0.181,0.003,0.359,0.014,0.541,0.014    c19.066,0,34.522-15.456,34.522-34.522C340.392,169.104,324.936,153.648,305.87,153.648z"/>
	</g>
	<g>
		<polygon style="fill:#FF583E;" points="362.001,280.669 244.995,206.881 188.073,253.789 99.001,195.286 99.001,331.266     362.001,331.266   "/>
	</g>
	<g>
		<polygon style="fill:#495F7A;" points="406.327,417.194 230.501,417.194 220.501,207.205 416.327,207.205   "/>
	</g>
	<g>
		<polygon style="fill:#385068;" points="416.327,207.205 319.102,207.205 319.102,417.194 406.327,417.194   "/>
	</g>
	<g>
		<rect x="211.082" y="172.353" style="fill:#2F455B;" width="214.664" height="65.687"/>
	</g>
	<g>
		<rect x="319.102" y="172.353" style="fill:#2C4054;" width="106.644" height="65.687"/>
	</g>
	<g>
		<path style="fill:#2F455B;" d="M383.74,203.17H253.088V129H383.74V203.17z M283.088,173.17h70.652V159h-70.652V173.17z"/>
	</g>
	<g>
		<polygon style="fill:#2C4054;" points="383.74,129 319.102,129 319.102,159 353.74,159 353.74,173.17 319.102,173.17     319.102,203.17 383.74,203.17   "/>
	</g>
	<g>
		<path style="fill:#2F455B;" d="M318.414,392c-8.284,0-15-6.716-15-15V272c0-8.284,6.716-15,15-15s15,6.716,15,15v105    C333.414,385.284,326.698,392,318.414,392z"/>
	</g>
	<g>
		<path style="fill:#2C4054;" d="M319.102,257.035v134.931c7.963-0.362,14.312-6.914,14.312-14.965V272    C333.414,263.948,327.064,257.396,319.102,257.035z"/>
	</g>
	<g>
		<g>
			<path style="fill:#2F455B;" d="M265.576,392c-7.956,0-14.588-6.255-14.971-14.287l-5-105c-0.394-8.275,5.995-15.302,14.27-15.696     c8.276-0.392,15.303,5.994,15.696,14.27l5,105c0.394,8.275-5.995,15.302-14.27,15.696C266.059,391.995,265.817,392,265.576,392z"/>
		</g>
		<g>
			<path style="fill:#2C4054;" d="M371.252,392c-0.241,0-0.482-0.006-0.726-0.018c-8.275-0.394-14.664-7.421-14.27-15.696l5-105     c0.394-8.275,7.438-14.66,15.696-14.27c8.275,0.394,14.664,7.421,14.27,15.696l-5,105C385.841,385.745,379.208,392,371.252,392z"/>
		</g>
	</g>
</g>















</svg>
