<?xml version="1.0" encoding="iso-8859-1"?>
<!-- Generator: Adobe Illustrator 19.0.0, SVG Export Plug-In . SVG Version: 6.00 Build 0)  -->
<svg version="1.1" id="Layer_1" xmlns="http://www.w3.org/2000/svg" xmlns:xlink="http://www.w3.org/1999/xlink" x="0px" y="0px"
	 viewBox="0 0 512 512" style="enable-background:new 0 0 512 512;" xml:space="preserve">
<circle style="fill:#FC6F58;" cx="256" cy="256" r="256"/>
<path style="fill:#F1543F;" d="M505.601,313.097L373.226,180.722L238.258,300.894l-92.588,90.433l120.456,120.456
	C383.372,507.22,480.377,423.822,505.601,313.097z"/>
<polygon style="fill:#FFD15D;" points="299.386,106.882 145.67,106.882 145.67,391.327 373.226,391.327 373.226,180.722 "/>
<polygon style="fill:#F9B54C;" points="373.226,180.722 299.386,106.882 255.424,106.882 255.424,391.327 373.226,391.327 "/>
<polygon style="fill:#FFFFFF;" points="299.386,180.722 373.226,180.722 299.386,106.882 "/>
<circle style="fill:#FD8469;" cx="202.559" cy="220.66" r="22.411"/>
<polygon style="fill:#57442F;" points="201.138,234.567 185.418,217.724 192.979,210.666 201.394,219.682 226.054,195.024 
	233.367,202.337 "/>
<circle style="fill:#FD8469;" cx="202.559" cy="305.993" r="22.411"/>
<g>
	<polygon style="fill:#57442F;" points="201.138,319.9 185.418,303.057 192.979,296 201.394,305.016 226.054,280.357 
		233.367,287.67 	"/>
	<rect x="259.448" y="215.488" style="fill:#57442F;" width="85.333" height="10.343"/>
	<rect x="259.448" y="300.822" style="fill:#57442F;" width="85.333" height="10.343"/>
</g>
<g>
</g>
<g>
</g>
<g>
</g>
<g>
</g>
<g>
</g>
<g>
</g>
<g>
</g>
<g>
</g>
<g>
</g>
<g>
</g>
<g>
</g>
<g>
</g>
<g>
</g>
<g>
</g>
<g>
</g>
</svg>
